<svg aria-hidden="true" style="position: absolute; width: 0; height: 0; overflow: hidden;" version="1.1" xmlns="http://www.w3.org/2000/svg" xmlns:xlink="http://www.w3.org/1999/xlink">
<defs>
<symbol id="icon-cross" viewBox="0 0 32 32">
<path d="M17.253 15.751l7.369-7.317c0.146-0.169 0.222-0.386 0.213-0.608s-0.101-0.433-0.26-0.59c-0.158-0.157-0.37-0.249-0.594-0.258s-0.442 0.067-0.612 0.212l-7.369 7.317-7.369-7.326c-0.167-0.166-0.394-0.26-0.631-0.26s-0.464 0.093-0.631 0.26c-0.167 0.166-0.261 0.392-0.261 0.627s0.094 0.46 0.261 0.627l7.378 7.317-7.378 7.317c-0.093 0.079-0.169 0.176-0.222 0.286s-0.083 0.229-0.088 0.35 0.016 0.243 0.061 0.356c0.045 0.113 0.112 0.216 0.199 0.302s0.19 0.153 0.304 0.198c0.114 0.044 0.236 0.065 0.359 0.060s0.243-0.034 0.353-0.087 0.208-0.128 0.288-0.22l7.378-7.317 7.369 7.317c0.17 0.145 0.389 0.22 0.612 0.212s0.436-0.101 0.594-0.258c0.158-0.157 0.251-0.368 0.26-0.59s-0.067-0.439-0.213-0.608l-7.369-7.317z"></path>
</symbol>
<symbol id="icon-arrow-right" viewBox="0 0 32 32">
<path d="M10.586 3.272c-0.375 0.375-0.586 0.884-0.586 1.414s0.211 1.039 0.586 1.414l9.9 9.9-9.9 9.9c-0.364 0.377-0.566 0.882-0.561 1.407s0.215 1.026 0.586 1.397 0.872 0.581 1.397 0.586c0.524 0.005 1.030-0.197 1.407-0.561l11.314-11.314c0.375-0.375 0.586-0.884 0.586-1.414s-0.211-1.039-0.586-1.414l-11.314-11.314c-0.375-0.375-0.884-0.586-1.414-0.586s-1.039 0.211-1.414 0.586z"></path>
</symbol>
</defs>
</svg>
